sfk_cyclingleg_theta_95_states
version=1
nRows=9
nColumns=53
inDegrees=yes

# SIMM Motion File Header:
name sfk_cyclingleg_theta_95_states
datacolumns 53
datarows 9
otherdata 1
range 0.80048040 0.80575251
endheader
time	/jointset/bb/crank_angle/value	/jointset/bb/crank_angle/speed	/jointset/spindle/pedal_angle_r/value	/jointset/spindle/pedal_angle_r/speed	/jointset/ground_pelvis/pelvis_tilt/value	/jointset/ground_pelvis/pelvis_tilt/speed	/jointset/ground_pelvis/pelvis_list/value	/jointset/ground_pelvis/pelvis_list/speed	/jointset/ground_pelvis/pelvis_rotation/value	/jointset/ground_pelvis/pelvis_rotation/speed	/jointset/ground_pelvis/pelvis_tx/value	/jointset/ground_pelvis/pelvis_tx/speed	/jointset/ground_pelvis/pelvis_ty/value	/jointset/ground_pelvis/pelvis_ty/speed	/jointset/ground_pelvis/pelvis_tz/value	/jointset/ground_pelvis/pelvis_tz/speed	/jointset/hip_r/hip_angle_r/value	/jointset/hip_r/hip_angle_r/speed	/jointset/hip_r/hip_adduction_r/value	/jointset/hip_r/hip_adduction_r/speed	/jointset/hip_r/hip_rotation_r/value	/jointset/hip_r/hip_rotation_r/speed	/jointset/knee_r/knee_angle_r/value	/jointset/knee_r/knee_angle_r/speed	/jointset/knee_r/tib_tx_r/value	/jointset/knee_r/tib_tx_r/speed	/jointset/knee_r/tib_ty_r/value	/jointset/knee_r/tib_ty_r/speed	/jointset/tib_pat_r/pat_angle_r/value	/jointset/tib_pat_r/pat_angle_r/speed	/jointset/tib_pat_r/pat_tx_r/value	/jointset/tib_pat_r/pat_tx_r/speed	/jointset/tib_pat_r/pat_ty_r/value	/jointset/tib_pat_r/pat_ty_r/speed	/jointset/ankle_r/ankle_angle_r/value	/jointset/ankle_r/ankle_angle_r/speed	/jointset/subtalar_r/subtalar_angle_r/value	/jointset/subtalar_r/subtalar_angle_r/speed	/jointset/mtp_r/mtp_angle_r/value	/jointset/mtp_r/mtp_angle_r/speed	/forceset/bifemlh_r/activation	/forceset/bifemlh_r/fiber_length	/forceset/bifemsh_r/activation	/forceset/bifemsh_r/fiber_length	/forceset/glut_max2_r/activation	/forceset/glut_max2_r/fiber_length	/forceset/vas_int_r/activation	/forceset/vas_int_r/fiber_length	/forceset/med_gas_r/activation	/forceset/med_gas_r/fiber_length	/forceset/tib_ant_r/activation	/forceset/tib_ant_r/fiber_length
      0.80048040	   -394.47644808	   -480.13863232	    391.08533986	    588.36555600	      0.00000000	      0.00000000	      0.00000000	      0.00000000	     -0.00000000	     -0.00000000	     -0.10000000	     -0.00000000	     -0.05000000	     -0.00000000	      0.00000000	     -0.00000000	     80.35202204	    -52.66675822	      4.14229190	      2.03066859	     -3.17621117	     19.83047690	   -108.98958529	    211.88473000	     -0.00011773	      0.06008772	     -0.49245503	      0.07095314	     17.63917818	     -0.59144807	      0.02478836	      0.09744847	     -0.02375221	      0.01510104	     25.88399581	    -52.64422089	     -0.00000000	     -0.00000000	     -0.00000000	      0.00000000	     -0.07761973	      0.13851019	     -0.07761973	      0.14619864	     -0.07761973	      0.15494436	     -0.07761973	      0.15790586	     -0.07761973	      0.13109291	     -0.07761973	      0.11307868
      0.80125132	   -394.84659287	   -480.13863232	    391.53878182	    588.01215097	      0.00000000	      0.00000000	      0.00000000	      0.00000000	     -0.00000000	     -0.00000000	     -0.10000000	     -0.00000000	     -0.05000000	     -0.00000000	      0.00000000	     -0.00000000	     80.31087502	    -54.08138500	      4.14385933	      2.03573988	     -3.16090581	     19.87647699	   -108.82586963	    212.84623893	     -0.00007141	      0.06007036	     -0.49240019	      0.07132376	     17.63871772	     -0.60311983	      0.02486359	      0.09773346	     -0.02374057	      0.01512169	     25.84344967	    -52.54503231	     -0.00000000	     -0.00000000	     -0.00000000	      0.00000000	     -0.07771899	      0.13850388	     -0.07771899	      0.14622889	     -0.07771899	      0.15492898	     -0.07771899	      0.15784201	     -0.07771899	      0.13115668	     -0.07771899	      0.11311513
      0.80221952	   -395.31146465	   -480.13863232	    392.10788297	    587.57018640	      0.00000000	      0.00000000	      0.00000000	      0.00000000	     -0.00000000	     -0.00000000	     -0.10000000	     -0.00000000	     -0.05000000	     -0.00000000	      0.00000000	     -0.00000000	     80.25765569	    -55.85163043	      4.14583332	      2.04182941	     -3.14163391	     19.93289635	   -108.61921090	    214.04295010	     -0.00001327	      0.06004034	     -0.49233091	      0.07178586	     17.63812671	     -0.61772298	      0.02495839	      0.09808374	     -0.02372591	      0.01514555	     25.79263827	    -52.41395932	     -0.00000000	     -0.00000000	     -0.00000000	      0.00000000	     -0.07784364	      0.13849517	     -0.07784364	      0.14626751	     -0.07784364	      0.15490900	     -0.07784364	      0.15774324	     -0.07784364	      0.13118475	     -0.07784364	      0.11316079
      0.80351575	   -395.93383279	   -480.13863232	    392.86912493	    586.98184950	      0.00000000	      0.00000000	      0.00000000	      0.00000000	     -0.00000000	     -0.00000000	     -0.10000000	     -0.00000000	     -0.05000000	     -0.00000000	      0.00000000	     -0.00000000	     80.18372930	    -58.21021227	      4.14848502	      2.04949444	     -3.11574864	     20.00611008	   -108.34073443	    215.62620112	      0.00006453	      0.05998596	     -0.49223746	      0.07239858	     17.63731338	     -0.63716226	      0.02508582	      0.09853949	     -0.02370626	      0.01517388	     25.72481752	    -52.22735288	     -0.00000000	     -0.00000000	     -0.00000000	      0.00000000	     -0.07801053	      0.13848215	     -0.07801053	      0.14632031	     -0.07801053	      0.15488105	     -0.07801053	      0.15762566	     -0.07801053	      0.13120187	     -0.07801053	      0.11322171
      0.80423612	   -396.27971264	   -480.13863232	    393.29185474	    586.65658412	      0.00000000	      0.00000000	      0.00000000	      0.00000000	     -0.00000000	     -0.00000000	     -0.10000000	     -0.00000000	     -0.05000000	     -0.00000000	      0.00000000	     -0.00000000	     80.14132582	    -59.51522684	      4.14996288	      2.05351296	     -3.10132244	     20.04566871	   -108.18508875	    216.49675633	      0.00010773	      0.05994876	     -0.49218518	      0.07273615	     17.63685052	     -0.64790349	      0.02515690	      0.09878628	     -0.02369533	      0.01518782	     25.68723331	    -52.11823906	     -0.00000000	     -0.00000000	     -0.00000000	      0.00000000	     -0.07810328	      0.13847426	     -0.07810328	      0.14635022	     -0.07810328	      0.15486494	     -0.07810328	      0.15753836	     -0.07810328	      0.13133474	     -0.07810328	      0.11325547
      0.80430816	   -396.31430063	   -480.13863232	    393.33411484	    586.62412543	      0.00000000	      0.00000000	      0.00000000	      0.00000000	     -0.00000000	     -0.00000000	     -0.10000000	     -0.00000000	     -0.05000000	     -0.00000000	      0.00000000	     -0.00000000	     80.13703380	    -59.64549881	      4.15011082	      2.05390533	     -3.09987826	     20.04958069	   -108.16948974	    216.58344569	      0.00011204	      0.05994477	     -0.49217994	      0.07276979	     17.63680381	     -0.64897498	      0.02516401	      0.09881070	     -0.02369423	      0.01518915	     25.68347924	    -52.10711790	     -0.00000000	     -0.00000000	     -0.00000000	      0.00000000	     -0.07811256	      0.13847345	     -0.07811256	      0.14635324	     -0.07811256	      0.15486330	     -0.07811256	      0.15753254	     -0.07811256	      0.13128841	     -0.07811256	      0.11325884
      0.80443517	   -396.37528401	   -480.13863232	    393.40861952	    586.56692654	      0.00000000	      0.00000000	      0.00000000	      0.00000000	     -0.00000000	     -0.00000000	     -0.10000000	     -0.00000000	     -0.05000000	     -0.00000000	      0.00000000	     -0.00000000	     80.12944353	    -59.87508397	      4.15037174	      2.05459294	     -3.09733129	     20.05645871	   -108.14197134	    216.73612890	      0.00011966	      0.05993761	     -0.49217070	      0.07282905	     17.63672126	     -0.65086296	      0.02517657	      0.09885366	     -0.02369230	      0.01519145	     25.67686226	    -52.08741740	     -0.00000000	     -0.00000000	     -0.00000000	      0.00000000	     -0.07812891	      0.13847200	     -0.07812891	      0.14635856	     -0.07812891	      0.15486041	     -0.07812891	      0.15752157	     -0.07812891	      0.13127823	     -0.07812891	      0.11326478
      0.80482930	   -396.56452226	   -480.13863232	    393.63976969	    586.38967860	      0.00000000	      0.00000000	      0.00000000	      0.00000000	     -0.00000000	     -0.00000000	     -0.10000000	     -0.00000000	     -0.05000000	     -0.00000000	      0.00000000	     -0.00000000	     80.10570454	    -60.58667889	      4.15118194	      2.05669256	     -3.08942220	     20.07764542	   -108.05645541	    217.20860602	      0.00014328	      0.05991442	     -0.49214196	      0.07301252	     17.63646358	     -0.65671160	      0.02521555	      0.09898603	     -0.02368631	      0.01519834	     25.65634508	    -52.02553674	     -0.00000000	     -0.00000000	     -0.00000000	      0.00000000	     -0.07817965	      0.13846743	     -0.07817965	      0.14637515	     -0.07817965	      0.15485135	     -0.07817965	      0.15748420	     -0.07817965	      0.13127302	     -0.07817965	      0.11328320
      0.80575251	   -397.00779055	   -480.13863232	    394.18093877	    585.97597006	      0.00000000	      0.00000000	      0.00000000	      0.00000000	     -0.00000000	     -0.00000000	     -0.10000000	     -0.00000000	     -0.05000000	     -0.00000000	      0.00000000	     -0.00000000	     80.04900271	    -62.24852696	      4.15308289	      2.06140883	     -3.07086376	     20.12635322	   -107.85541836	    218.30754504	      0.00019856	      0.05985435	     -0.49207435	      0.07343978	     17.63585099	     -0.67034947	      0.02530708	      0.09929072	     -0.02367228	      0.01521298	     25.60838310	    -51.87620075	     -0.00000000	     -0.00000000	     -0.00000000	      0.00000000	     -0.07829852	      0.13845618	     -0.07829852	      0.14641448	     -0.07829852	      0.15482965	     -0.07829852	      0.15739212	     -0.07829852	      0.13129015	     -0.07829852	      0.11332626
